<?xml version="1.0"?>
<!-- Generated by SVGo and Plotinum VG -->
<svg width="1008pt" height="360pt" viewBox="0 0 1008 360"
	xmlns="http://www.w3.org/2000/svg"
	xmlns:xlink="http://www.w3.org/1999/xlink">
<g transform="scale(1, -1) translate(0, -360)">
<path d="M0,0L1008,0L1008,360L0,360Z" style="fill:#FFFFFF" />
<text x="436.66" y="-350.61" transform="scale(1, -1)"
	style="font-family:Liberation Serif;font-variant:normal;font-weight:normal;font-style:normal;font-size:12px">MalOp Resolution Tracking</text>
<text x="507.71" y="-3.9023" transform="scale(1, -1)"
	style="font-family:Liberation Serif;font-variant:normal;font-weight:normal;font-style:normal;font-size:12px">Date</text>
<text x="30.078" y="-16.541" transform="scale(1, -1)"
	style="font-family:Liberation Serif;font-variant:normal;font-weight:normal;font-style:normal;font-size:10px">21/06/2023</text>
<text x="113.57" y="-16.541" transform="scale(1, -1)"
	style="font-family:Liberation Serif;font-variant:normal;font-weight:normal;font-style:normal;font-size:10px">21/07/2023</text>
<text x="199.85" y="-16.541" transform="scale(1, -1)"
	style="font-family:Liberation Serif;font-variant:normal;font-weight:normal;font-style:normal;font-size:10px">21/08/2023</text>
<text x="286.13" y="-16.541" transform="scale(1, -1)"
	style="font-family:Liberation Serif;font-variant:normal;font-weight:normal;font-style:normal;font-size:10px">21/09/2023</text>
<text x="369.63" y="-16.541" transform="scale(1, -1)"
	style="font-family:Liberation Serif;font-variant:normal;font-weight:normal;font-style:normal;font-size:10px">21/10/2023</text>
<text x="456.09" y="-16.541" transform="scale(1, -1)"
	style="font-family:Liberation Serif;font-variant:normal;font-weight:normal;font-style:normal;font-size:10px">21/11/2023</text>
<text x="539.4" y="-16.541" transform="scale(1, -1)"
	style="font-family:Liberation Serif;font-variant:normal;font-weight:normal;font-style:normal;font-size:10px">21/12/2023</text>
<text x="625.68" y="-16.541" transform="scale(1, -1)"
	style="font-family:Liberation Serif;font-variant:normal;font-weight:normal;font-style:normal;font-size:10px">21/01/2024</text>
<text x="711.96" y="-16.541" transform="scale(1, -1)"
	style="font-family:Liberation Serif;font-variant:normal;font-weight:normal;font-style:normal;font-size:10px">21/02/2024</text>
<text x="792.67" y="-16.541" transform="scale(1, -1)"
	style="font-family:Liberation Serif;font-variant:normal;font-weight:normal;font-style:normal;font-size:10px">21/03/2024</text>
<text x="878.95" y="-16.541" transform="scale(1, -1)"
	style="font-family:Liberation Serif;font-variant:normal;font-weight:normal;font-style:normal;font-size:10px">21/04/2024</text>
<text x="962.44" y="-16.541" transform="scale(1, -1)"
	style="font-family:Liberation Serif;font-variant:normal;font-weight:normal;font-style:normal;font-size:10px">21/05/2024</text>
<path d="M52.856,24.363L52.856,32.363" style="fill:none;stroke:#000000;stroke-width:0.5" />
<path d="M136.35,24.363L136.35,32.363" style="fill:none;stroke:#000000;stroke-width:0.5" />
<path d="M222.63,24.363L222.63,32.363" style="fill:none;stroke:#000000;stroke-width:0.5" />
<path d="M308.91,24.363L308.91,32.363" style="fill:none;stroke:#000000;stroke-width:0.5" />
<path d="M392.4,24.363L392.4,32.363" style="fill:none;stroke:#000000;stroke-width:0.5" />
<path d="M478.68,24.363L478.68,32.363" style="fill:none;stroke:#000000;stroke-width:0.5" />
<path d="M562.18,24.363L562.18,32.363" style="fill:none;stroke:#000000;stroke-width:0.5" />
<path d="M648.46,24.363L648.46,32.363" style="fill:none;stroke:#000000;stroke-width:0.5" />
<path d="M734.74,24.363L734.74,32.363" style="fill:none;stroke:#000000;stroke-width:0.5" />
<path d="M815.45,24.363L815.45,32.363" style="fill:none;stroke:#000000;stroke-width:0.5" />
<path d="M901.73,24.363L901.73,32.363" style="fill:none;stroke:#000000;stroke-width:0.5" />
<path d="M985.22,24.363L985.22,32.363" style="fill:none;stroke:#000000;stroke-width:0.5" />
<path d="M52.856,32.363L985.22,32.363" style="fill:none;stroke:#000000;stroke-width:0.5" />
<g transform="rotate(90)">
<text x="176.52" y="9.3867" transform="scale(1, -1)"
	style="font-family:Liberation Serif;font-variant:normal;font-weight:normal;font-style:normal;font-size:12px">Count</text>
</g>
<text x="25.606" y="-38.924" transform="scale(1, -1)"
	style="font-family:Liberation Serif;font-variant:normal;font-weight:normal;font-style:normal;font-size:10px">17</text>
<text x="20.606" y="-98.917" transform="scale(1, -1)"
	style="font-family:Liberation Serif;font-variant:normal;font-weight:normal;font-style:normal;font-size:10px">310</text>
<text x="20.606" y="-158.91" transform="scale(1, -1)"
	style="font-family:Liberation Serif;font-variant:normal;font-weight:normal;font-style:normal;font-size:10px">603</text>
<text x="20.606" y="-218.9" transform="scale(1, -1)"
	style="font-family:Liberation Serif;font-variant:normal;font-weight:normal;font-style:normal;font-size:10px">895</text>
<text x="15.885" y="-278.9" transform="scale(1, -1)"
	style="font-family:Liberation Serif;font-variant:normal;font-weight:normal;font-style:normal;font-size:10px">1.2K</text>
<text x="15.885" y="-338.89" transform="scale(1, -1)"
	style="font-family:Liberation Serif;font-variant:normal;font-weight:normal;font-style:normal;font-size:10px">1.5K</text>
<path d="M38.106,41.209L46.106,41.209" style="fill:none;stroke:#000000;stroke-width:0.5" />
<path d="M38.106,101.2L46.106,101.2" style="fill:none;stroke:#000000;stroke-width:0.5" />
<path d="M38.106,161.19L46.106,161.19" style="fill:none;stroke:#000000;stroke-width:0.5" />
<path d="M38.106,221.19L46.106,221.19" style="fill:none;stroke:#000000;stroke-width:0.5" />
<path d="M38.106,281.18L46.106,281.18" style="fill:none;stroke:#000000;stroke-width:0.5" />
<path d="M38.106,341.17L46.106,341.17" style="fill:none;stroke:#000000;stroke-width:0.5" />
<path d="M46.106,41.209L46.106,341.17" style="fill:none;stroke:#000000;stroke-width:0.5" />
<path d="M52.856,168.65L136.35,172.34L222.63,172.75L308.91,174.8L392.4,179.72L478.68,183.2L562.18,193.24L648.46,193.86L734.74,200.21L815.45,221.93L901.73,258.6L985.22,341.17" style="fill:none;stroke:#9966FF;stroke-width:2" />
<path d="M52.856,41.209L136.35,44.282L222.63,44.487L308.91,44.487L392.4,44.692L478.68,47.561L562.18,54.322L648.46,54.937L734.74,58.625L815.45,73.377L901.73,94.686L985.22,96.94" style="fill:none;stroke:#FF9900;stroke-width:2" />
</g>
</svg>
